<?xml version="1.0" encoding="UTF-8" standalone="no"?>
<!-- Created with Inkscape (http://www.inkscape.org/) -->

<svg
   xmlns:dc="http://purl.org/dc/elements/1.1/"
   xmlns:cc="http://creativecommons.org/ns#"
   xmlns:rdf="http://www.w3.org/1999/02/22-rdf-syntax-ns#"
   xmlns:svg="http://www.w3.org/2000/svg"
   xmlns="http://www.w3.org/2000/svg"
   xmlns:sodipodi="http://sodipodi.sourceforge.net/DTD/sodipodi-0.dtd"
   xmlns:inkscape="http://www.inkscape.org/namespaces/inkscape"
   width="800mm"
   height="800mm"
   viewBox="0 0 800 800"
   id="svg3336"
   version="1.1"
   inkscape:version="0.92.1 r15371"
   sodipodi:docname="logo.svg">
  <defs
     id="defs3338" />
  <sodipodi:namedview
     id="base"
     pagecolor="#000000"
     bordercolor="#666666"
     borderopacity="1.0"
     inkscape:pageopacity="0.0"
     inkscape:pageshadow="2"
     inkscape:zoom="0.22627417"
     inkscape:cx="1277.4475"
     inkscape:cy="1701.3573"
     inkscape:document-units="px"
     inkscape:current-layer="layer1"
     showgrid="false"
     inkscape:snap-grids="true"
     inkscape:snap-object-midpoints="false"
     inkscape:object-paths="false"
     inkscape:snap-nodes="true"
     inkscape:snap-intersection-paths="false"
     inkscape:window-width="1600"
     inkscape:window-height="803"
     inkscape:window-x="0"
     inkscape:window-y="27"
     inkscape:window-maximized="1" />
  <metadata
     id="metadata3341">
    <rdf:RDF>
      <cc:Work
         rdf:about="">
        <dc:format>image/svg+xml</dc:format>
        <dc:type
           rdf:resource="http://purl.org/dc/dcmitype/StillImage" />
        <dc:title />
      </cc:Work>
    </rdf:RDF>
  </metadata>
  <g
     inkscape:label="Layer 1"
     inkscape:groupmode="layer"
     id="layer1">
    <circle
       style="fill:#ffffff"
       id="OUT_BLANK"
       cx="400"
       cy="400"
       r="399.5" />
    <path
       style="fill:#007f0e"
       d="M 1151.5742 26.201172 A 1417.3229 1417.3229 0 0 0 0 1417.3223 A 1417.3229 1417.3229 0 0 0 1151.5742 2808.7871 L 1151.5742 2627.8145 A 1240.1576 1240.1576 0 0 1 1050.832 2602.0898 A 1240.1576 1240.1576 0 0 1 934.38281 2559.584 A 1240.1576 1240.1576 0 0 1 822.75977 2505.6641 A 1240.1576 1240.1576 0 0 1 717.07812 2440.8691 A 1240.1576 1240.1576 0 0 1 618.39062 2365.8477 A 1240.1576 1240.1576 0 0 1 527.6875 2281.3496 A 1240.1576 1240.1576 0 0 1 445.875 2188.2168 A 1240.1576 1240.1576 0 0 1 373.76562 2087.3828 A 1240.1576 1240.1576 0 0 1 312.08594 1979.8535 A 1240.1576 1240.1576 0 0 1 261.44727 1866.7031 A 1240.1576 1240.1576 0 0 1 222.35938 1749.0645 A 1240.1576 1240.1576 0 0 1 195.21094 1628.1094 A 1240.1576 1240.1576 0 0 1 180.27148 1505.0488 A 1240.1576 1240.1576 0 0 1 177.16602 1417.3223 A 1240.1576 1240.1576 0 0 1 183.36133 1293.5137 A 1240.1576 1240.1576 0 0 1 201.88672 1170.9414 A 1240.1576 1240.1576 0 0 1 232.55469 1050.832 A 1240.1576 1240.1576 0 0 1 275.0625 934.38281 A 1240.1576 1240.1576 0 0 1 328.98242 822.75977 A 1240.1576 1240.1576 0 0 1 393.77734 717.07812 A 1240.1576 1240.1576 0 0 1 468.79883 618.39062 A 1240.1576 1240.1576 0 0 1 553.29688 527.6875 A 1240.1576 1240.1576 0 0 1 646.42773 445.875 A 1240.1576 1240.1576 0 0 1 747.26367 373.76562 A 1240.1576 1240.1576 0 0 1 854.79297 312.08594 A 1240.1576 1240.1576 0 0 1 967.94141 261.44727 A 1240.1576 1240.1576 0 0 1 1085.582 222.35938 A 1240.1576 1240.1576 0 0 1 1151.5742 207.54688 L 1151.5742 26.201172 z "
       id="OUT_GREEN_L"
       transform="scale(0.2822222,0.2822222)" />
    <path
       style="fill:#007f0e"
       d="M 1417.3223 0 A 1417.3229 1417.3229 0 0 0 1328.7402 4.4335938 L 1328.7402 88.582031 L 1328.7402 180.375 L 1328.7402 2653.0488 L 1328.7402 2746.0625 L 1328.7402 2831.5098 A 1417.3229 1417.3229 0 0 0 1417.3223 2834.6465 A 1417.3229 1417.3229 0 0 0 2834.6465 1417.3242 A 1417.3229 1417.3229 0 0 0 1417.3223 0 z M 1505.9062 181.59961 A 1240.1576 1240.1576 0 0 1 1541.1328 183.36133 A 1240.1576 1240.1576 0 0 1 1663.7051 201.88672 A 1240.1576 1240.1576 0 0 1 1783.8145 232.55469 A 1240.1576 1240.1576 0 0 1 1900.2637 275.0625 A 1240.1576 1240.1576 0 0 1 2011.8867 328.98242 A 1240.1576 1240.1576 0 0 1 2117.5684 393.77734 A 1240.1576 1240.1576 0 0 1 2216.2539 468.79883 A 1240.1576 1240.1576 0 0 1 2306.957 553.29688 A 1240.1576 1240.1576 0 0 1 2388.7715 646.42773 A 1240.1576 1240.1576 0 0 1 2460.8789 747.26367 A 1240.1576 1240.1576 0 0 1 2522.5605 854.79297 A 1240.1576 1240.1576 0 0 1 2573.1973 967.94141 A 1240.1576 1240.1576 0 0 1 2612.2871 1085.582 A 1240.1576 1240.1576 0 0 1 2639.4355 1206.5371 A 1240.1576 1240.1576 0 0 1 2654.373 1329.5977 A 1240.1576 1240.1576 0 0 1 2657.4805 1417.3223 A 1240.1576 1240.1576 0 0 1 2651.2852 1541.1328 A 1240.1576 1240.1576 0 0 1 2632.7598 1663.7051 A 1240.1576 1240.1576 0 0 1 2602.0898 1783.8145 A 1240.1576 1240.1576 0 0 1 2559.584 1900.2637 A 1240.1576 1240.1576 0 0 1 2505.6641 2011.8867 A 1240.1576 1240.1576 0 0 1 2440.8691 2117.5684 A 1240.1576 1240.1576 0 0 1 2365.8477 2216.2539 A 1240.1576 1240.1576 0 0 1 2281.3496 2306.957 A 1240.1576 1240.1576 0 0 1 2188.2168 2388.7715 A 1240.1576 1240.1576 0 0 1 2087.3828 2460.8789 A 1240.1576 1240.1576 0 0 1 1979.8535 2522.5605 A 1240.1576 1240.1576 0 0 1 1866.7031 2573.1973 A 1240.1576 1240.1576 0 0 1 1749.0645 2612.2871 A 1240.1576 1240.1576 0 0 1 1628.1094 2639.4355 A 1240.1576 1240.1576 0 0 1 1505.9062 2654.2695 L 1505.9062 181.59961 z "
       transform="scale(0.2822222,0.2822222)"
       id="OUT_GREEN_R" />
    <path
       style="fill:#007f0e"
       d="M 1151.5742,388.89258 A 1062.9922,1062.9922 0 0 0 974.41016,452.82617 1062.9922,1062.9922 0 0 0 389.20117,1151.5742 l 184.14258,0 a 885.82656,885.82656 0 0 1 18.35352,-55.2383 885.82656,885.82656 0 0 1 36.16992,-80.8203 885.82656,885.82656 0 0 1 44.05859,-76.80662 885.82656,885.82656 0 0 1 51.50391,-72.02539 885.82656,885.82656 0 0 1 58.43945,-66.52148 885.82656,885.82656 0 0 1 64.78711,-60.35742 885.82656,885.82656 0 0 1 70.49023,-53.58594 885.82656,885.82656 0 0 1 57.26368,-35.10742 l 0,500.46287 0,177.166 -614.91407,0 a 1062.9922,1062.9922 0 0 0 -5.16601,88.5821 1062.9922,1062.9922 0 0 0 4.66406,88.5839 1062.9922,1062.9922 0 0 0 31.17188,177.1641 1062.9922,1062.9922 0 0 0 584.24414,697.8164 1062.9922,1062.9922 0 0 0 177.16404,64.3067 l 0,-762.1231 -177.16404,0 0,500.1289 a 885.82656,885.82656 0 0 1 -35.70313,-20.4785 885.82656,885.82656 0 0 1 -72.02344,-51.5059 885.82656,885.82656 0 0 1 -66.52343,-58.4394 885.82656,885.82656 0 0 1 -60.35547,-64.7871 885.82656,885.82656 0 0 1 -53.58789,-70.4903 885.82656,885.82656 0 0 1 -46.28125,-75.4882 885.82656,885.82656 0 0 1 -38.51367,-79.7305 885.82656,885.82656 0 0 1 -30.36133,-83.1777 885.82656,885.82656 0 0 1 -21.90625,-85.793 885.82656,885.82656 0 0 1 -13.21094,-87.4024 l 438.4668,0 177.16404,0 0,-177.166 0,-177.166 0,-762.68162 z"
       transform="scale(0.2822222,0.2822222)"
       id="IN_GREEN_L"
       inkscape:connector-curvature="0" />
    <path
       style="fill:#007f0e"
       d="m 1683.0703,388.89258 0,762.68162 0,177.166 0,177.166 177.166,0 437.5489,0 a 885.8265,885.8265 0 0 1 -7.5235,61.9805 885.8265,885.8265 0 0 1 -19.3926,86.3965 885.8265,885.8265 0 0 1 -27.9218,84.0273 885.8265,885.8265 0 0 1 -36.17,80.8223 885.8265,885.8265 0 0 1 -44.0566,76.8067 885.8265,885.8265 0 0 1 -51.5059,72.0234 885.8265,885.8265 0 0 1 -58.4394,66.5234 885.8265,885.8265 0 0 1 -64.7871,60.3555 885.8265,885.8265 0 0 1 -70.4903,53.5879 885.8265,885.8265 0 0 1 -57.2617,35.1074 l 0,-500.4668 -177.166,0 0,762.1231 a 1062.9922,1062.9922 0 0 0 177.166,-63.9356 1062.9922,1062.9922 0 0 0 583.7989,-698.1875 1062.9922,1062.9922 0 0 0 31.0625,-177.1641 1062.9922,1062.9922 0 0 0 5.2168,-88.5839 1062.9922,1062.9922 0 0 0 -4.6172,-88.5821 l -615.461,0 0,-177.166 0,-500.12693 a 885.82656,885.82656 0 0 1 35.7012,20.47851 885.82656,885.82656 0 0 1 72.0254,51.50391 885.82656,885.82656 0 0 1 66.5215,58.43945 885.82656,885.82656 0 0 1 60.3574,64.78711 885.82656,885.82656 0 0 1 53.5859,70.49023 885.82656,885.82656 0 0 1 46.2813,75.48829 885.82656,885.82656 0 0 1 38.5156,79.73043 885.82656,885.82656 0 0 1 28.9121,79.209 l 182.4863,0 a 1062.9922,1062.9922 0 0 0 -584.3867,-698.36717 1062.9922,1062.9922 0 0 0 -177.166,-64.31445 z"
       transform="scale(0.2822222,0.2822222)"
       id="IN_GREEN_R"
       inkscape:connector-curvature="0" />
  </g>
</svg>
